Coordinates
version=1
nRows=13
nColumns=38
inDegrees=no

Units are S.I. units (second, meters, Newtons, ...)
If the header above contains a line with 'inDegrees', this indicates whether rotational values are in degrees (yes) or radians (no).

endheader
time	pelvis_tilt	pelvis_list	pelvis_rotation	pelvis_tx	pelvis_ty	pelvis_tz	hip_flexion_r	hip_adduction_r	hip_rotation_r	knee_angle_r	ankle_angle_r	subtalar_angle_r	mtp_angle_r	hip_flexion_l	hip_adduction_l	hip_rotation_l	knee_angle_l	ankle_angle_l	subtalar_angle_l	mtp_angle_l	lumbar_extension	lumbar_bending	lumbar_rotation	arm_flex_r	arm_add_r	arm_rot_r	elbow_flex_r	pro_sup_r	wrist_flex_r	wrist_dev_r	arm_flex_l	arm_add_l	arm_rot_l	elbow_flex_l	pro_sup_l	wrist_flex_l	wrist_dev_l
1.03	2.95831	1.18807	-1.24026	0.642715	0.717305	0.96919	-0.450456	0.146467	-0.397249	0.0375542	-0.208873	0	0	-0.146644	-0.272246	-0.162379	1.37076	-0.135418	0	0	-0.517006	0.123941	-0.300803	0.15423	-0.571428	1.24823	0.847186	0.321866	0	0	-0.29468	-0.345899	-0.0854433	1.12809	1.49783	0	0
1.04	2.97184	1.19281	-1.26389	0.644763	0.7273	0.969759	-0.464729	0.138009	-0.388753	0.0275308	-0.207542	0	0	-0.118389	-0.262139	-0.16883	1.37495	-0.132098	0	0	-0.513761	0.111743	-0.293851	0.153738	-0.568063	1.24971	0.84552	0.31937	0	0	-0.301416	-0.347591	-0.0814943	1.1241	1.49984	0	0
1.05	2.98599	1.1942	-1.28739	0.646507	0.737273	0.970551	-0.478398	0.12683	-0.375348	0.03072	-0.200035	0	0	-0.095467	-0.253691	-0.178262	1.37182	-0.130611	0	0	-0.513638	0.100949	-0.286848	0.153681	-0.565789	1.25175	0.844897	0.317346	0	0	-0.307446	-0.349457	-0.076989	1.12006	1.50263	0	0
1.06	3.00031	1.18013	-1.30525	0.646733	0.747111	0.973128	-0.509266	0.118201	-0.385048	0.0359193	-0.196972	0	0	-0.0918315	-0.249102	-0.188309	1.35655	-0.131181	0	0	-0.528964	0.0982985	-0.283042	0.156363	-0.566866	1.2551	0.846588	0.316475	0	0	-0.31062	-0.349057	-0.0724868	1.11477	1.50623	0	0
1.07	3.01239	1.17975	-1.32743	0.648287	0.75699	0.973639	-0.523599	0.111427	-0.381233	0.0280439	-0.194979	0	0	-0.0740749	-0.24368	-0.205289	1.34333	-0.131014	0	0	-0.530945	0.0885195	-0.275752	0.157129	-0.567525	1.25679	0.850506	0.315237	0	0	-0.317255	-0.34991	-0.0708219	1.11292	1.50898	0	0
1.08	3.01895	1.19756	-1.35263	0.651443	0.767012	0.971841	-0.523599	0.106711	-0.347243	0.00773763	-0.190418	0	0	-0.0369038	-0.239993	-0.232373	1.33321	-0.131052	0	0	-0.512849	0.0710767	-0.260565	0.154115	-0.564958	1.25746	0.850187	0.309918	0	0	-0.323943	-0.352976	-0.0668499	1.10882	1.51505	0	0
1.09	3.01063	1.21013	-1.36311	0.655011	0.776588	0.970533	-0.520174	0.102224	-0.621925	0.0156911	-0.221777	0	0	-0.00515215	-0.247804	-0.263067	1.31879	-0.133225	0	0	-0.499972	0.0598429	-0.243542	0.152752	-0.560894	1.2575	0.84838	0.306753	0	0	-0.330725	-0.355145	-0.0668483	1.10534	1.52508	0	0
1.1	3.04368	1.19849	-1.38638	0.653004	0.787231	0.971812	-0.523599	0.0977551	-0.419874	0.0300061	-0.198182	0	0	-0.00285084	-0.23485	-0.272914	1.28945	-0.132309	0	0	-0.511113	0.0556658	-0.254937	0.150775	-0.56508	1.25574	0.854622	0.305903	0	0	-0.337878	-0.353684	-0.0658855	1.10276	1.5283	0	0
1.11	3.01689	1.22612	-1.38276	0.65482	0.797295	0.970279	-0.523599	0.0958277	-0.363836	0.0175647	-0.188486	0	0	0.0347583	-0.240688	-0.304115	1.25648	-0.131714	0	0	-0.502945	0.052487	-0.239484	0.155159	-0.568055	1.25645	0.85524	0.305396	0	0	-0.346791	-0.352457	-0.071858	1.09863	1.53003	0	0
1.12	3.01137	1.23749	-1.3898	0.656008	0.807625	0.969342	-0.523599	0.0917753	-0.345168	0.0200681	-0.179586	0	0	0.055727	-0.244065	-0.338417	1.2233	-0.132211	0	0	-0.493092	0.0464425	-0.229037	0.153977	-0.567357	1.2556	0.853283	0.305159	0	0	-0.350862	-0.348429	-0.0744627	1.09065	1.53213	0	0
1.13	3.01149	1.24659	-1.4	0.65682	0.817736	0.968431	-0.523599	0.0844359	-0.332932	0.0221001	-0.174191	0	0	0.072599	-0.243297	-0.369447	1.18434	-0.132445	0	0	-0.48602	0.0401788	-0.220869	0.153446	-0.566781	1.25444	0.851685	0.305064	0	0	-0.35419	-0.345375	-0.0769238	1.08331	1.53458	0	0
1.14	3.01098	1.2561	-1.40808	0.657514	0.827798	0.96739	-0.523599	0.0787268	-0.326787	0.025851	-0.168554	0	0	0.0878087	-0.241014	-0.398398	1.13931	-0.133362	0	0	-0.479624	0.0346793	-0.213846	0.15315	-0.565987	1.2528	0.849955	0.305009	0	0	-0.357213	-0.34267	-0.0798925	1.07655	1.53645	0	0
1.15	3.0104	1.26583	-1.41397	0.657984	0.837802	0.966171	-0.523599	0.0739909	-0.323024	0.029583	-0.161972	0	0	0.10178	-0.237561	-0.425584	1.08905	-0.136149	0	0	-0.473091	0.0300115	-0.208488	0.15274	-0.56494	1.2511	0.847921	0.305284	0	0	-0.359983	-0.340259	-0.0830453	1.06983	1.53742	0	0
